name analog
datacolumns 19
datarows 65
range 0.5865 0.6185
endheader
time	ground_force_vx	ground_force_vy	ground_force_vz	ground_force_px	ground_force_py	ground_force_pz	l_ground_force_vx	l_ground_force_vy	l_ground_force_vz	l_ground_force_px	l_ground_force_py	l_ground_force_pz	ground_torque_x	ground_torque_y	ground_torque_z	l_ground_torque_x	l_ground_torque_y	l_ground_torque_z
0.5865	-0.0	-0.0	-0.0	-0.0	-0.0	-0.0	-0.0	-0.0	-0.0	-0.0	-0.0	-0.0	-0.0	-0.0	-0.0	-0.0	-0.0	-0.0
0.587	-0.0	-0.0	-0.0	-0.0	-0.0	-0.0	-0.0	-0.0	-0.0	-0.0	-0.0	-0.0	-0.0	-0.0	-0.0	-0.0	-0.0	-0.0
0.5875	-0.0	-0.0	-0.0	-0.0	-0.0	-0.0	-0.0	-0.0	-0.0	-0.0	-0.0	-0.0	-0.0	-0.0	-0.0	-0.0	-0.0	-0.0
0.588	-0.0	-0.0	-0.0	-0.0	-0.0	-0.0	-0.0	-0.0	-0.0	-0.0	-0.0	-0.0	-0.0	-0.0	-0.0	-0.0	-0.0	-0.0
0.5885	-0.0	-0.0	-0.0	-0.0	-0.0	-0.0	-0.0	-0.0	-0.0	-0.0	-0.0	-0.0	-0.0	-0.0	-0.0	-0.0	-0.0	-0.0
0.589	-0.0	-0.0	-0.0	-0.0	-0.0	-0.0	-0.0	-0.0	-0.0	-0.0	-0.0	-0.0	-0.0	-0.0	-0.0	-0.0	-0.0	-0.0
0.5895	-0.0	-0.0	-0.0	-0.0	-0.0	-0.0	-0.0	-0.0	-0.0	-0.0	-0.0	-0.0	-0.0	-0.0	-0.0	-0.0	-0.0	-0.0
0.59	-0.0	-0.0	-0.0	-0.0	-0.0	-0.0	-0.0	-0.0	-0.0	-0.0	-0.0	-0.0	-0.0	-0.0	-0.0	-0.0	-0.0	-0.0
0.5905	-0.0	-0.0	-0.0	-0.0	-0.0	-0.0	-0.0	-0.0	-0.0	-0.0	-0.0	-0.0	-0.0	-0.0	-0.0	-0.0	-0.0	-0.0
0.591	-0.0	-0.0	-0.0	-0.0	-0.0	-0.0	-0.0	-0.0	-0.0	-0.0	-0.0	-0.0	-0.0	-0.0	-0.0	-0.0	-0.0	-0.0
0.5915	-0.0	-0.0	-0.0	-0.0	-0.0	-0.0	-0.0	-0.0	-0.0	-0.0	-0.0	-0.0	-0.0	-0.0	-0.0	-0.0	-0.0	-0.0
0.592	-0.0	-0.0	-0.0	-0.0	-0.0	-0.0	-0.0	-0.0	-0.0	-0.0	-0.0	-0.0	-0.0	-0.0	-0.0	-0.0	-0.0	-0.0
0.5925	-0.0	-0.0	-0.0	-0.0	-0.0	-0.0	-0.0	-0.0	-0.0	-0.0	-0.0	-0.0	-0.0	-0.0	-0.0	-0.0	-0.0	-0.0
0.593	-0.0	-0.0	-0.0	-0.0	-0.0	-0.0	-0.0	-0.0	-0.0	-0.0	-0.0	-0.0	-0.0	-0.0	-0.0	-0.0	-0.0	-0.0
0.5935	-0.0	-0.0	-0.0	-0.0	-0.0	-0.0	-0.0	-0.0	-0.0	-0.0	-0.0	-0.0	-0.0	-0.0	-0.0	-0.0	-0.0	-0.0
0.594	-0.0	-0.0	-0.0	-0.0	-0.0	-0.0	-0.0	-0.0	-0.0	-0.0	-0.0	-0.0	-0.0	-0.0	-0.0	-0.0	-0.0	-0.0
0.5945	-0.0	-0.0	-0.0	-0.0	-0.0	-0.0	-0.0	-0.0	-0.0	-0.0	-0.0	-0.0	-0.0	-0.0	-0.0	-0.0	-0.0	-0.0
0.595	-0.0	-0.0	-0.0	-0.0	-0.0	-0.0	-0.0	-0.0	-0.0	-0.0	-0.0	-0.0	-0.0	-0.0	-0.0	-0.0	-0.0	-0.0
0.5955	-0.0	-0.0	-0.0	-0.0	-0.0	-0.0	-0.0	-0.0	-0.0	-0.0	-0.0	-0.0	-0.0	-0.0	-0.0	-0.0	-0.0	-0.0
0.596	-0.0	-0.0	-0.0	-0.0	-0.0	-0.0	-0.0	-0.0	-0.0	-0.0	-0.0	-0.0	-0.0	-0.0	-0.0	-0.0	-0.0	-0.0
0.5965	-0.0	-0.0	-0.0	-0.0	-0.0	-0.0	-0.0	-0.0	-0.0	-0.0	-0.0	-0.0	-0.0	-0.0	-0.0	-0.0	-0.0	-0.0
0.597	-0.0	-0.0	-0.0	-0.0	-0.0	-0.0	-0.0	-0.0	-0.0	-0.0	-0.0	-0.0	-0.0	-0.0	-0.0	-0.0	-0.0	-0.0
0.5975	-0.0	-0.0	-0.0	-0.0	-0.0	-0.0	-0.0	-0.0	-0.0	-0.0	-0.0	-0.0	-0.0	-0.0	-0.0	-0.0	-0.0	-0.0
0.598	-0.0	-0.0	-0.0	-0.0	-0.0	-0.0	-0.0	-0.0	-0.0	-0.0	-0.0	-0.0	-0.0	-0.0	-0.0	-0.0	-0.0	-0.0
0.5985	-0.0	-0.0	-0.0	-0.0	-0.0	-0.0	-0.0	-0.0	-0.0	-0.0	-0.0	-0.0	-0.0	-0.0	-0.0	-0.0	-0.0	-0.0
0.599	-0.0	-0.0	-0.0	-0.0	-0.0	-0.0	-0.0	-0.0	-0.0	-0.0	-0.0	-0.0	-0.0	-0.0	-0.0	-0.0	-0.0	-0.0
0.5995	-0.0	-0.0	-0.0	-0.0	-0.0	-0.0	-0.0	-0.0	-0.0	-0.0	-0.0	-0.0	-0.0	-0.0	-0.0	-0.0	-0.0	-0.0
0.6	-0.0	-0.0	-0.0	-0.0	-0.0	-0.0	-0.0	-0.0	-0.0	-0.0	-0.0	-0.0	-0.0	-0.0	-0.0	-0.0	-0.0	-0.0
0.6005	-0.0	-0.0	-0.0	-0.0	-0.0	-0.0	-0.0	-0.0	-0.0	-0.0	-0.0	-0.0	-0.0	-0.0	-0.0	-0.0	-0.0	-0.0
0.601	-0.0	-0.0	-0.0	-0.0	-0.0	-0.0	-0.0	-0.0	-0.0	-0.0	-0.0	-0.0	-0.0	-0.0	-0.0	-0.0	-0.0	-0.0
0.6015	-0.0	-0.0	-0.0	-0.0	-0.0	-0.0	-0.0	-0.0	-0.0	-0.0	-0.0	-0.0	-0.0	-0.0	-0.0	-0.0	-0.0	-0.0
0.602	-0.0	-0.0	-0.0	2.627988815307617	11.17519187927246	-91.09397888183594	-0.0	-0.0	-0.0	-0.0	-0.0	-0.0	-0.0	-0.0	-0.0	-0.0	-0.0	-0.0
0.6025	-0.0	-0.0	-0.0	-19.45295524597168	-9.750958442687988	-68.54729461669922	-0.0	-0.0	-0.0	-0.0	-0.0	-0.0	-0.0	-0.0	-0.0	-0.0	-0.0	-0.0
0.603	-0.0	-0.0	-0.0	-58.04652786254883	1.6185545921325684	-275.59112548828125	-0.0	-0.0	-0.0	-0.0	-0.0	-0.0	-0.0	-0.0	-0.0	-0.0	-0.0	-0.0
0.6035	-0.0	-0.0	-0.0	-193.2034454345703	5.99854850769043	-472.1239929199219	-12.197751998901367	20.144508361816406	-125.8228530883789	-0.0	-0.0	-0.0	-0.0	-0.0	-0.0	15137.0458984375	-1199.8924560546875	-1096.575927734375
0.604	-0.0	-0.0	-0.0	-99.15584564208984	33.658111572265625	-415.732421875	-30.9588623046875	8.054328918457031	-100.48648071289062	-0.0	-0.0	-0.0	-0.0	-0.0	-0.0	27417.359375	-3486.2626953125	-2693.52783203125
0.6045	-0.0	-0.0	-0.0	51.23970031738281	42.35332107543945	-392.42681884765625	-123.85427856445312	-11.201543807983398	-359.5205383300781	-0.0	-0.0	-0.0	-0.0	-0.0	-0.0	64622.4765625	-13348.25	-19282.48046875
0.605	-0.0	-0.0	-0.0	141.37326049804688	32.41777038574219	-466.4503479003906	-114.99397277832033	-48.49776077270508	-296.3699645996094	-0.0	-0.0	-0.0	-0.0	-0.0	-0.0	61638.5390625	-10946.7724609375	-16164.9345703125
0.6055	-0.0	-0.0	-0.0	124.80793762207033	33.85797882080078	-539.10302734375	-24.46146011352539	-44.98468399047852	-349.6460876464844	-0.0	-0.0	-0.0	-0.0	-0.0	-0.0	66286.5859375	-14572.9228515625	1168.55078125
0.606	-0.0	-0.0	-0.0	74.08558654785156	58.41956329345703	-627.330078125	41.49879837036133	-30.55583381652832	-398.0555725097656	-0.0	-0.0	-0.0	-0.0	-0.0	-0.0	78553.0078125	-19632.1875	12128.3583984375
0.6065	-0.0	-0.0	-0.0	51.080352783203125	69.89850616455078	-668.66357421875	48.80356216430664	-41.075721740722656	-431.4774475097656	-0.0	-0.0	-0.0	-0.0	-0.0	-0.0	85627.7578125	-20771.201171875	12541.7236328125
0.607	-0.0	-0.0	-0.0	19.56331443786621	76.3095703125	-692.0184326171875	18.485658645629883	-56.97294998168945	-463.11041259765625	-0.0	-0.0	-0.0	-0.0	-0.0	-0.0	91798.2109375	-22426.765625	6536.072265625
0.6075	-0.0	-0.0	-0.0	-22.259862899780277	93.23040771484376	-717.2520141601562	14.948680877685549	-64.5074234008789	-487.8286437988281	-0.0	-0.0	-0.0	-0.0	-0.0	-0.0	96169.9453125	-24595.92578125	5771.47119140625
0.608	-0.0	-0.0	-0.0	-67.89885711669922	100.9847412109375	-736.3134765625	20.031360626220703	-67.0425033569336	-488.8025512695313	-0.0	-0.0	-0.0	-0.0	-0.0	-0.0	97193.2109375	-25776.03515625	6784.63720703125
0.6085	-0.0	-0.0	-0.0	-100.70081329345705	105.74431610107422	-770.9683227539062	3.2651302814483643	-71.39974212646484	-493.0096130371094	-0.0	-0.0	-0.0	-0.0	-0.0	-0.0	97721.421875	-26977.00390625	4086.071533203125
0.609	-0.0	-0.0	-0.0	-113.65937042236328	109.30916595458984	-823.435546875	-31.607501983642575	-81.54283142089844	-520.138671875	-0.0	-0.0	-0.0	-0.0	-0.0	-0.0	103784.5546875	-28765.873046875	-1755.8499755859375
0.6095	-0.0	-0.0	-0.0	-102.6442642211914	110.26966857910156	-900.350830078125	-64.22078704833984	-94.35466766357422	-568.22802734375	-0.0	-0.0	-0.0	-0.0	-0.0	-0.0	114014.6953125	-32834.99609375	-7258.18896484375
0.61	-0.0	-0.0	-0.0	-40.09122467041016	105.2642059326172	-1072.792724609375	-60.09385681152344	-94.73405456542967	-712.2337036132812	-0.0	-0.0	-0.0	-0.0	-0.0	-0.0	146234.1875	-55392.046875	-7905.638671875
0.6105	-0.0	-0.0	-0.0	81.26963806152344	79.78289794921875	-1341.044189453125	46.61501693725586	-71.68790435791016	-966.1694946289062	-0.0	-0.0	-0.0	-0.0	-0.0	-0.0	207300.03125	-107035.4375	12517.3828125
0.611	-0.0	-0.0	-0.0	189.1103057861328	66.23406982421875	-1455.3651123046875	192.08013916015625	-61.73871612548828	-1192.15185546875	-0.0	-0.0	-0.0	-0.0	-0.0	-0.0	261426.234375	-157126.4375	42865.90625
0.6115	-0.0	-0.0	-0.0	159.0447540283203	81.90545654296875	-1386.2083740234375	252.36036682128903	-59.508338928222656	-1107.919677734375	-0.0	-0.0	-0.0	-0.0	-0.0	-0.0	242393.484375	-145183.90625	55810.98046875
0.612	-0.0	-0.0	-0.0	48.43339920043945	106.77242279052734	-1289.7733154296875	154.4647216796875	-78.64520263671875	-1006.3182373046876	-0.0	-0.0	-0.0	-0.0	-0.0	-0.0	216040.203125	-118107.203125	36796.88671875
0.6125	-0.0	-0.0	-0.0	-24.53199005126953	117.02639770507812	-1202.5667724609375	50.156005859375	-106.38956451416016	-907.9620971679688	-0.0	-0.0	-0.0	-0.0	-0.0	-0.0	191476.640625	-91175.546875	16235.7216796875
0.613	-0.0	-0.0	-0.0	-62.18773651123047	128.70550537109375	-1138.42236328125	-25.97325325012207	-113.7239990234375	-829.8051147460938	-0.0	-0.0	-0.0	-0.0	-0.0	-0.0	171928.578125	-69999.1953125	698.0565185546875
0.6135	-0.0	-0.0	-0.0	-69.4128646850586	136.49440002441406	-1088.288330078125	-65.51238250732422	-113.5097198486328	-771.5	-0.0	-0.0	-0.0	-0.0	-0.0	-0.0	158064.875	-55867.77734375	-8303.71875
0.614	-0.0	-0.0	-0.0	-60.56046676635742	134.3377227783203	-1046.3353271484375	-78.56848907470703	-109.86034393310548	-731.9837646484375	-0.0	-0.0	-0.0	-0.0	-0.0	-0.0	148800.453125	-46752.046875	-11936.5537109375
0.6145	-0.0	-0.0	-0.0	-43.0156135559082	122.67806243896484	-1005.0580444335938	-83.20755004882812	-105.52098083496094	-711.3858032226562	-0.0	-0.0	-0.0	-0.0	-0.0	-0.0	144310.25	-41819.4375	-13939.0869140625
0.615	-0.0	-0.0	-0.0	-30.340211868286133	107.89421081542967	-965.7437133789062	-83.39974212646484	-99.49231719970705	-702.295654296875	-0.0	-0.0	-0.0	-0.0	-0.0	-0.0	142383.78125	-40027.06640625	-15250.671875
0.6155	-0.0	-0.0	-0.0	-27.497224807739254	97.9416046142578	-920.1044311523438	-80.52635192871094	-92.96831512451172	-698.10595703125	-0.0	-0.0	-0.0	-0.0	-0.0	-0.0	142011.53125	-39102.86328125	-15971.7587890625
0.616	-0.0	-0.0	-0.0	-30.857622146606445	91.48641204833984	-871.0511474609375	-77.71064758300781	-86.394287109375	-695.6170654296875	-0.0	-0.0	-0.0	-0.0	-0.0	-0.0	141835.90625	-38591.18359375	-16654.14453125
0.6165	-0.0	-0.0	-0.0	-37.78580093383789	85.09947967529297	-830.9923095703125	-74.88805389404297	-82.60324096679688	-692.36767578125	-0.0	-0.0	-0.0	-0.0	-0.0	-0.0	141459.859375	-38185.203125	-16723.314453125
0.617	-0.0	-0.0	-0.0	-47.0831184387207	80.36653900146484	-798.3841552734375	-71.7723159790039	-81.62562561035156	-683.988037109375	-0.0	-0.0	-0.0	-0.0	-0.0	-0.0	139518.03125	-37229.37109375	-16107.0556640625
0.6175	-0.0	-0.0	-0.0	-54.19050979614258	78.1388931274414	-774.0962524414062	-65.14703369140625	-80.95789337158203	-669.76025390625	-0.0	-0.0	-0.0	-0.0	-0.0	-0.0	136500.40625	-35885.07421875	-14409.470703125
0.618	-0.0	-0.0	-0.0	-59.15468597412109	77.21712493896484	-759.652099609375	-55.40056610107422	-80.11864471435547	-654.2241821289062	-0.0	-0.0	-0.0	-0.0	-0.0	-0.0	133179.515625	-34550.09765625	-12003.404296875
0.6185	-0.0	-0.0	-0.0	-61.66339111328125	76.74329376220703	-750.4324340820312	-46.99087905883789	-80.61619567871094	-639.756591796875	-0.0	-0.0	-0.0	-0.0	-0.0	-0.0	129756.0390625	-33311.1875	-9578.2470703125
